<?xml version="1.0" encoding="UTF-8"?>
<!DOCTYPE svg PUBLIC "-//W3C//DTD SVG 1.1//EN" "http://www.w3.org/Graphics/SVG/1.1/DTD/svg11.dtd">
<!-- Creator: CorelDRAW 2020 (64 Bit) -->
<svg xmlns="http://www.w3.org/2000/svg" xml:space="preserve" width="2.4934mm" height="2.7094mm" version="1.1" style="shape-rendering:geometricPrecision; text-rendering:geometricPrecision; image-rendering:optimizeQuality; fill-rule:evenodd; clip-rule:evenodd"
viewBox="0 0 3.33 3.62"
 xmlns:xlink="http://www.w3.org/1999/xlink"
 xmlns:xodm="http://www.corel.com/coreldraw/odm/2003">
 <defs>
  <style type="text/css">
   <![CDATA[
    .str0 {stroke:#373435;stroke-width:0.1;stroke-miterlimit:22.9256}
    .fil2 {fill:none;fill-rule:nonzero}
    .fil95 {fill:#ABC3DB}
    .fil94 {fill:#AAC1DA}
    .fil93 {fill:#A8C0DA}
    .fil92 {fill:#A6BFD9}
    .fil91 {fill:#A4BDD8}
    .fil90 {fill:#A2BCD8}
    .fil89 {fill:#A1BBD8}
    .fil88 {fill:#9FBAD7}
    .fil87 {fill:#9EB8D6}
    .fil86 {fill:#9CB7D6}
    .fil85 {fill:#9AB5D5}
    .fil84 {fill:#99B4D4}
    .fil83 {fill:#97B2D3}
    .fil82 {fill:#95B1D2}
    .fil81 {fill:#93AFD2}
    .fil80 {fill:#91AED1}
    .fil79 {fill:#8FACD0}
    .fil78 {fill:#8EABD0}
    .fil77 {fill:#8CA9CF}
    .fil76 {fill:#8BA8CE}
    .fil75 {fill:#89A7CD}
    .fil74 {fill:#86A5CC}
    .fil73 {fill:#85A3CC}
    .fil72 {fill:#83A2CB}
    .fil71 {fill:#82A0CA}
    .fil70 {fill:#7F9FCA}
    .fil69 {fill:#7E9DC9}
    .fil68 {fill:#7C9CC8}
    .fil67 {fill:#7B9AC7}
    .fil66 {fill:#7999C6}
    .fil65 {fill:#7797C6}
    .fil64 {fill:#7696C5}
    .fil63 {fill:#7495C4}
    .fil62 {fill:#7293C3}
    .fil61 {fill:#7092C3}
    .fil60 {fill:#6F91C2}
    .fil59 {fill:#6C8FC1}
    .fil58 {fill:#6B8EC0}
    .fil57 {fill:#698CBF}
    .fil56 {fill:#678BBF}
    .fil55 {fill:#668ABE}
    .fil54 {fill:#6488BE}
    .fil53 {fill:#6387BD}
    .fil52 {fill:#6085BC}
    .fil51 {fill:#5F84BB}
    .fil50 {fill:#5D83BA}
    .fil49 {fill:#5C82BA}
    .fil48 {fill:#5981B9}
    .fil47 {fill:#5780B9}
    .fil46 {fill:#567FB8}
    .fil45 {fill:#547DB7}
    .fil44 {fill:#537CB7}
    .fil43 {fill:#517BB6}
    .fil42 {fill:#4E7AB5}
    .fil41 {fill:#4C79B5}
    .fil40 {fill:#4B78B4}
    .fil39 {fill:#4977B3}
    .fil38 {fill:#4876B3}
    .fil37 {fill:#4675B3}
    .fil36 {fill:#4474B2}
    .fil35 {fill:#4373B2}
    .fil34 {fill:#4172B1}
    .fil33 {fill:#3F71B1}
    .fil32 {fill:#3D70B0}
    .fil31 {fill:#3C6FAF}
    .fil30 {fill:#3A6FAF}
    .fil29 {fill:#386EAE}
    .fil28 {fill:#366DAE}
    .fil27 {fill:#346CAD}
    .fil26 {fill:#346CAD}
    .fil25 {fill:#326BAC}
    .fil24 {fill:#316AAC}
    .fil23 {fill:#2F6AAC}
    .fil22 {fill:#2F69AB}
    .fil21 {fill:#2B68AB}
    .fil20 {fill:#2A68AB}
    .fil19 {fill:#2767AB}
    .fil18 {fill:#2666AA}
    .fil17 {fill:#2566AA}
    .fil16 {fill:#2265A9}
    .fil15 {fill:#2165A9}
    .fil14 {fill:#2064A9}
    .fil13 {fill:#1F64A9}
    .fil12 {fill:#1F63A8}
    .fil11 {fill:#1D63A8}
    .fil10 {fill:#1C63A8}
    .fil9 {fill:#1B62A8}
    .fil8 {fill:#1C62A7}
    .fil7 {fill:#1A62A7}
    .fil6 {fill:#1A61A7}
    .fil5 {fill:#1961A7}
    .fil4 {fill:#1861A6}
    .fil3 {fill:#1F5FA8}
    .fil96 {fill:url(#id1)}
    .fil1 {fill:url(#id2)}
    .fil0 {fill:url(#id3)}
   ]]>
  </style>
    <clipPath id="id0">
     <path d="M0.66 1.71l0.27 0 0 0.25 0.74 -0.42 1.27 0.72c0.16,-0.37 0.26,-0.82 0.26,-1.3l0 -0.32 -1.54 -0.48 -1.52 0.48 0 0.32c0,0.48 0.09,0.93 0.26,1.3l0.27 -0.15 0 -0.4zm0.38 -0.27c0.16,-0.15 0.38,-0.25 0.62,-0.25 0.24,0 0.46,0.09 0.62,0.25l-0.12 0.14c-0.13,-0.13 -0.3,-0.2 -0.5,-0.2 -0.19,0 -0.37,0.08 -0.5,0.2l-0.12 -0.14zm-0.12 -0.14l-0.12 -0.14c0.23,-0.21 0.53,-0.34 0.87,-0.34 0.34,0 0.64,0.13 0.87,0.34l-0.12 0.14c-0.2,-0.18 -0.46,-0.29 -0.74,-0.29 -0.29,0 -0.55,0.11 -0.74,0.29zm1.74 -0.27c-0.26,-0.24 -0.61,-0.38 -0.99,-0.38 -0.38,0 -0.73,0.15 -0.99,0.38l-0.12 -0.14c0.3,-0.27 0.69,-0.43 1.12,-0.43 0.43,0 0.82,0.16 1.12,0.43l-0.12 0.14z"/>
    </clipPath>
  <linearGradient id="id1" gradientUnits="userSpaceOnUse" x1="-0" y1="1.16" x2="3.33" y2="1.16">
   <stop offset="0" style="stop-opacity:1; stop-color:#184A85"/>
   <stop offset="0.580392" style="stop-opacity:1; stop-color:#184A85"/>
   <stop offset="1" style="stop-opacity:1; stop-color:#184A85"/>
  </linearGradient>
  <linearGradient id="id2" gradientUnits="userSpaceOnUse" x1="0.48" y1="2.62" x2="2.85" y2="2.62">
   <stop offset="0" style="stop-opacity:1; stop-color:#2CA02C"/>
   <stop offset="0.811765" style="stop-opacity:1; stop-color:#95CF95"/>
   <stop offset="1" style="stop-opacity:1; stop-color:#FEFEFE"/>
  </linearGradient>
  <linearGradient id="id3" gradientUnits="userSpaceOnUse" x1="0.37" y1="3.02" x2="2.96" y2="3.02">
   <stop offset="0" style="stop-opacity:1; stop-color:#2CA02C"/>
   <stop offset="0.639216" style="stop-opacity:1; stop-color:#74AF76"/>
   <stop offset="1" style="stop-opacity:1; stop-color:#BDBFC1"/>
  </linearGradient>
 </defs>
 <g id="Camada_x0020_1">
  <metadata id="CorelCorpID_0Corel-Layer"/>
  <path class="fil0" d="M2.41 3.16c0.21,-0.16 0.4,-0.39 0.55,-0.68l-0.1 -0.06c-0.01,0.02 -0.02,0.04 -0.03,0.06 -0.13,0.23 -0.29,0.43 -0.48,0.57l-0.68 0.42 -0.68 -0.42c-0.18,-0.14 -0.35,-0.33 -0.48,-0.57 -0.01,-0.02 -0.02,-0.04 -0.03,-0.06l-0.1 0.06c0.15,0.28 0.34,0.51 0.55,0.68l0.74 0.46 0.74 -0.46z"/>
  <path class="fil1" d="M2.85 2.43l-1.19 -0.67 -1.19 0.67c0.01,0.02 0.02,0.04 0.03,0.06 0.13,0.23 0.29,0.43 0.48,0.57l0.68 0.42 0.68 -0.42c0.18,-0.14 0.34,-0.33 0.48,-0.57 0.01,-0.02 0.02,-0.04 0.03,-0.06zm-0.97 0.02l-0.18 0 0 -0.18 0.18 0 0 0.18zm-0.18 0.09l0.18 0 0 0.18 -0.18 0 0 -0.18zm-0.09 -0.09l-0.18 0 0 -0.18 0.18 0 0 0.18zm-0.18 0.09l0.18 0 0 0.18 -0.18 0 0 -0.18z"/>
  <path class="fil2 str0" d="M0.14 0.95c0,0.48 0.09,0.93 0.26,1.3 -0.16,-0.37 -0.26,-0.82 -0.26,-1.3l0 -0.32 1.52 -0.48 1.54 0.48 0 0.32"/>
  <path class="fil2 str0" d="M3.2 0.95c0,0.48 -0.09,0.93 -0.26,1.3"/>
  <g>
   <g style="clip-path:url(#id0)">
    <polygon class="fil3" points="1.81,3.52 1.71,3.43 3.76,1.13 3.86,1.22 "/>
    <polygon id="1" class="fil4" points="1.72,3.44 1.69,3.41 3.74,1.11 3.77,1.15 "/>
    <polygon id="2" class="fil4" points="1.7,3.42 1.66,3.39 3.71,1.09 3.75,1.12 "/>
    <polygon id="3" class="fil4" points="1.67,3.4 1.64,3.37 3.69,1.07 3.72,1.1 "/>
    <polygon id="4" class="fil5" points="1.65,3.38 1.61,3.34 3.66,1.05 3.7,1.08 "/>
    <polygon id="5" class="fil5" points="1.63,3.36 1.59,3.32 3.64,1.03 3.68,1.06 "/>
    <polygon id="6" class="fil5" points="1.6,3.33 1.57,3.3 3.62,1.01 3.65,1.04 "/>
    <polygon id="7" class="fil6" points="1.58,3.31 1.54,3.28 3.59,0.99 3.63,1.02 "/>
    <polygon id="8" class="fil6" points="1.55,3.29 1.52,3.26 3.57,0.96 3.6,1 "/>
    <polygon id="9" class="fil7" points="1.53,3.27 1.49,3.24 3.54,0.94 3.58,0.97 "/>
    <polygon id="10" class="fil8" points="1.51,3.25 1.47,3.22 3.52,0.92 3.56,0.95 "/>
    <polygon id="11" class="fil9" points="1.48,3.23 1.45,3.19 3.5,0.9 3.53,0.93 "/>
    <polygon id="12" class="fil10" points="1.46,3.21 1.42,3.17 3.47,0.88 3.51,0.91 "/>
    <polygon id="13" class="fil11" points="1.43,3.18 1.4,3.15 3.45,0.86 3.48,0.89 "/>
    <polygon id="14" class="fil12" points="1.41,3.16 1.38,3.13 3.43,0.84 3.46,0.87 "/>
    <polygon id="15" class="fil13" points="1.39,3.14 1.35,3.11 3.4,0.81 3.44,0.85 "/>
    <polygon id="16" class="fil14" points="1.36,3.12 1.33,3.09 3.38,0.79 3.41,0.83 "/>
    <polygon id="17" class="fil15" points="1.34,3.1 1.3,3.07 3.35,0.77 3.39,0.8 "/>
    <polygon id="18" class="fil16" points="1.32,3.08 1.28,3.05 3.33,0.75 3.37,0.78 "/>
    <polygon id="19" class="fil17" points="1.29,3.06 1.26,3.02 3.31,0.73 3.34,0.76 "/>
    <polygon id="20" class="fil18" points="1.27,3.03 1.23,3 3.28,0.71 3.32,0.74 "/>
    <polygon id="21" class="fil19" points="1.24,3.01 1.21,2.98 3.26,0.69 3.29,0.72 "/>
    <polygon id="22" class="fil20" points="1.22,2.99 1.18,2.96 3.23,0.67 3.27,0.7 "/>
    <polygon id="23" class="fil21" points="1.2,2.97 1.16,2.94 3.21,0.64 3.25,0.68 "/>
    <polygon id="24" class="fil22" points="1.17,2.95 1.14,2.92 3.19,0.62 3.22,0.65 "/>
    <polygon id="25" class="fil23" points="1.15,2.93 1.11,2.9 3.16,0.6 3.2,0.63 "/>
    <polygon id="26" class="fil24" points="1.12,2.91 1.09,2.87 3.14,0.58 3.17,0.61 "/>
    <polygon id="27" class="fil25" points="1.1,2.89 1.06,2.85 3.11,0.56 3.15,0.59 "/>
    <polygon id="28" class="fil26" points="1.08,2.86 1.04,2.83 3.09,0.54 3.13,0.57 "/>
    <polygon id="29" class="fil27" points="1.05,2.84 1.02,2.81 3.07,0.52 3.1,0.55 "/>
    <polygon id="30" class="fil28" points="1.03,2.82 0.99,2.79 3.04,0.49 3.08,0.53 "/>
    <polygon id="31" class="fil29" points="1,2.8 0.97,2.77 3.02,0.47 3.05,0.5 "/>
    <polygon id="32" class="fil30" points="0.98,2.78 0.94,2.75 2.99,0.45 3.03,0.48 "/>
    <polygon id="33" class="fil31" points="0.96,2.76 0.92,2.72 2.97,0.43 3.01,0.46 "/>
    <polygon id="34" class="fil32" points="0.93,2.74 0.9,2.7 2.95,0.41 2.98,0.44 "/>
    <polygon id="35" class="fil33" points="0.91,2.71 0.87,2.68 2.92,0.39 2.96,0.42 "/>
    <polygon id="36" class="fil34" points="0.88,2.69 0.85,2.66 2.9,0.37 2.93,0.4 "/>
    <polygon id="37" class="fil35" points="0.86,2.67 0.83,2.64 2.88,0.34 2.91,0.38 "/>
    <polygon id="38" class="fil36" points="0.84,2.65 0.8,2.62 2.85,0.32 2.89,0.36 "/>
    <polygon id="39" class="fil37" points="0.81,2.63 0.78,2.6 2.83,0.3 2.86,0.33 "/>
    <polygon id="40" class="fil38" points="0.79,2.61 0.75,2.58 2.8,0.28 2.84,0.31 "/>
    <polygon id="41" class="fil39" points="0.77,2.59 0.73,2.55 2.78,0.26 2.82,0.29 "/>
    <polygon id="42" class="fil40" points="0.74,2.56 0.71,2.53 2.76,0.24 2.79,0.27 "/>
    <polygon id="43" class="fil41" points="0.72,2.54 0.68,2.51 2.73,0.22 2.77,0.25 "/>
    <polygon id="44" class="fil42" points="0.69,2.52 0.66,2.49 2.71,0.2 2.74,0.23 "/>
    <polygon id="45" class="fil43" points="0.67,2.5 0.63,2.47 2.68,0.17 2.72,0.21 "/>
    <polygon id="46" class="fil44" points="0.65,2.48 0.61,2.45 2.66,0.15 2.7,0.18 "/>
    <polygon id="47" class="fil45" points="0.62,2.46 0.59,2.43 2.64,0.13 2.67,0.16 "/>
    <polygon id="48" class="fil46" points="0.6,2.44 0.56,2.4 2.61,0.11 2.65,0.14 "/>
    <polygon id="49" class="fil47" points="0.57,2.42 0.54,2.38 2.59,0.09 2.62,0.12 "/>
    <polygon id="50" class="fil48" points="0.55,2.39 0.51,2.36 2.56,0.07 2.6,0.1 "/>
    <polygon id="51" class="fil49" points="0.53,2.37 0.49,2.34 2.54,0.05 2.58,0.08 "/>
    <polygon id="52" class="fil50" points="0.5,2.35 0.47,2.32 2.52,0.02 2.55,0.06 "/>
    <polygon id="53" class="fil51" points="0.48,2.33 0.44,2.3 2.49,0 2.53,0.03 "/>
    <polygon id="54" class="fil52" points="0.45,2.31 0.42,2.28 2.47,-0.02 2.5,0.01 "/>
    <polygon id="55" class="fil53" points="0.43,2.29 0.39,2.25 2.44,-0.04 2.48,-0.01 "/>
    <polygon id="56" class="fil54" points="0.41,2.27 0.37,2.23 2.42,-0.06 2.46,-0.03 "/>
    <polygon id="57" class="fil55" points="0.38,2.24 0.35,2.21 2.4,-0.08 2.43,-0.05 "/>
    <polygon id="58" class="fil56" points="0.36,2.22 0.32,2.19 2.37,-0.1 2.41,-0.07 "/>
    <polygon id="59" class="fil57" points="0.33,2.2 0.3,2.17 2.35,-0.13 2.38,-0.09 "/>
    <polygon id="60" class="fil58" points="0.31,2.18 0.28,2.15 2.33,-0.15 2.36,-0.11 "/>
    <polygon id="61" class="fil59" points="0.29,2.16 0.25,2.13 2.3,-0.17 2.34,-0.14 "/>
    <polygon id="62" class="fil60" points="0.26,2.14 0.23,2.11 2.28,-0.19 2.31,-0.16 "/>
    <polygon id="63" class="fil61" points="0.24,2.12 0.2,2.08 2.25,-0.21 2.29,-0.18 "/>
    <polygon id="64" class="fil62" points="0.22,2.09 0.18,2.06 2.23,-0.23 2.27,-0.2 "/>
    <polygon id="65" class="fil63" points="0.19,2.07 0.16,2.04 2.21,-0.25 2.24,-0.22 "/>
    <polygon id="66" class="fil64" points="0.17,2.05 0.13,2.02 2.18,-0.27 2.22,-0.24 "/>
    <polygon id="67" class="fil65" points="0.14,2.03 0.11,2 2.16,-0.3 2.19,-0.26 "/>
    <polygon id="68" class="fil66" points="0.12,2.01 0.08,1.98 2.13,-0.32 2.17,-0.29 "/>
    <polygon id="69" class="fil67" points="0.1,1.99 0.06,1.96 2.11,-0.34 2.15,-0.31 "/>
    <polygon id="70" class="fil68" points="0.07,1.97 0.04,1.93 2.09,-0.36 2.12,-0.33 "/>
    <polygon id="71" class="fil69" points="0.05,1.95 0.01,1.91 2.06,-0.38 2.1,-0.35 "/>
    <polygon id="72" class="fil70" points="0.02,1.92 -0.01,1.89 2.04,-0.4 2.07,-0.37 "/>
    <polygon id="73" class="fil71" points="0,1.9 -0.04,1.87 2.01,-0.42 2.05,-0.39 "/>
    <polygon id="74" class="fil72" points="-0.02,1.88 -0.06,1.85 1.99,-0.45 2.03,-0.41 "/>
    <polygon id="75" class="fil73" points="-0.05,1.86 -0.08,1.83 1.97,-0.47 2,-0.43 "/>
    <polygon id="76" class="fil74" points="-0.07,1.84 -0.11,1.81 1.94,-0.49 1.98,-0.46 "/>
    <polygon id="77" class="fil75" points="-0.1,1.82 -0.13,1.79 1.92,-0.51 1.95,-0.48 "/>
    <polygon id="78" class="fil76" points="-0.12,1.8 -0.16,1.76 1.89,-0.53 1.93,-0.5 "/>
    <polygon id="79" class="fil77" points="-0.14,1.77 -0.18,1.74 1.87,-0.55 1.91,-0.52 "/>
    <polygon id="80" class="fil78" points="-0.17,1.75 -0.2,1.72 1.85,-0.57 1.88,-0.54 "/>
    <polygon id="81" class="fil79" points="-0.19,1.73 -0.23,1.7 1.82,-0.6 1.86,-0.56 "/>
    <polygon id="82" class="fil80" points="-0.22,1.71 -0.25,1.68 1.8,-0.62 1.83,-0.58 "/>
    <polygon id="83" class="fil81" points="-0.24,1.69 -0.27,1.66 1.78,-0.64 1.81,-0.61 "/>
    <polygon id="84" class="fil82" points="-0.26,1.67 -0.3,1.64 1.75,-0.66 1.79,-0.63 "/>
    <polygon id="85" class="fil83" points="-0.29,1.65 -0.32,1.61 1.73,-0.68 1.76,-0.65 "/>
    <polygon id="86" class="fil84" points="-0.31,1.62 -0.35,1.59 1.7,-0.7 1.74,-0.67 "/>
    <polygon id="87" class="fil85" points="-0.33,1.6 -0.37,1.57 1.68,-0.72 1.72,-0.69 "/>
    <polygon id="88" class="fil86" points="-0.36,1.58 -0.39,1.55 1.66,-0.74 1.69,-0.71 "/>
    <polygon id="89" class="fil87" points="-0.38,1.56 -0.42,1.53 1.63,-0.77 1.67,-0.73 "/>
    <polygon id="90" class="fil88" points="-0.41,1.54 -0.44,1.51 1.61,-0.79 1.64,-0.76 "/>
    <polygon id="91" class="fil89" points="-0.43,1.52 -0.47,1.49 1.58,-0.81 1.62,-0.78 "/>
    <polygon id="92" class="fil90" points="-0.45,1.5 -0.49,1.46 1.56,-0.83 1.6,-0.8 "/>
    <polygon id="93" class="fil91" points="-0.48,1.48 -0.51,1.44 1.54,-0.85 1.57,-0.82 "/>
    <polygon id="94" class="fil92" points="-0.5,1.45 -0.54,1.42 1.51,-0.87 1.55,-0.84 "/>
    <polygon id="95" class="fil93" points="-0.53,1.43 -0.56,1.4 1.49,-0.89 1.52,-0.86 "/>
    <polygon id="96" class="fil94" points="-0.55,1.41 -0.59,1.38 1.46,-0.92 1.5,-0.88 "/>
    <polygon id="97" class="fil95" points="-0.57,1.39 -0.56,1.41 1.49,-0.89 1.48,-0.9 "/>
   </g>
  </g>
  <path class="fil96" d="M3.2 0.95c0,0.48 -0.09,0.93 -0.26,1.3l0.1 0.06c0.18,-0.41 0.29,-0.9 0.29,-1.44l0 -0.35 -1.67 -0.53 -1.66 0.53 0 0.35c0,0.53 0.11,1.03 0.29,1.44l0.1 -0.06c-0.16,-0.37 -0.26,-0.82 -0.26,-1.3l0 -0.32 1.52 -0.48 1.54 0.48 0 0.32z"/>
 </g>
</svg>
